<mxfile host="app.diagrams.net" modified="2021-12-08T14:00:34.566Z" agent="5.0 (Windows NT 10.0; Win64; x64) AppleWebKit/537.36 (KHTML, like Gecko) Chrome/95.0.4638.69 Safari/537.36" etag="R25vFgloByWbz9MXlRX7" version="15.5.9" type="github">
  <diagram id="kY0U03OjUaQlXYZeKJFk" name="第 1 页">
    <mxGraphModel dx="868" dy="460" grid="1" gridSize="10" guides="1" tooltips="1" connect="1" arrows="1" fold="1" page="1" pageScale="1" pageWidth="1169" pageHeight="827" math="0" shadow="0">
      <root>
        <mxCell id="0" />
        <mxCell id="1" parent="0" />
        <mxCell id="qHXjgJ4QeEU7fklSRqXQ-9" style="edgeStyle=entityRelationEdgeStyle;rounded=0;orthogonalLoop=1;jettySize=auto;html=1;entryX=0;entryY=0.5;entryDx=0;entryDy=0;fontSize=13;" edge="1" parent="1" source="qHXjgJ4QeEU7fklSRqXQ-1" target="qHXjgJ4QeEU7fklSRqXQ-6">
          <mxGeometry relative="1" as="geometry" />
        </mxCell>
        <mxCell id="qHXjgJ4QeEU7fklSRqXQ-11" value="&lt;p style=&quot;font-size: 12px&quot;&gt;访问&lt;/p&gt;&lt;p style=&quot;font-size: 12px&quot;&gt;&lt;span style=&quot;box-sizing: border-box ; font-weight: bolder ; color: rgb(246 , 106 , 107) ; font-family: &amp;#34;helvetica neue&amp;#34; , &amp;#34;microsoft yahei&amp;#34; , &amp;#34;pingfang sc&amp;#34; , &amp;#34;hiragino sans gb&amp;#34; , &amp;#34;\\5b8b体&amp;#34; , &amp;#34;helvetica&amp;#34; , &amp;#34;arial&amp;#34; , &amp;#34;tahoma&amp;#34; , sans-serif ; font-size: 12px&quot;&gt;xy1225.top&lt;/span&gt;&lt;/p&gt;" style="edgeLabel;html=1;align=center;verticalAlign=middle;resizable=0;points=[];fontSize=12;spacingTop=4;" vertex="1" connectable="0" parent="qHXjgJ4QeEU7fklSRqXQ-9">
          <mxGeometry x="-0.2167" relative="1" as="geometry">
            <mxPoint as="offset" />
          </mxGeometry>
        </mxCell>
        <mxCell id="qHXjgJ4QeEU7fklSRqXQ-1" value="客户端" style="rounded=1;whiteSpace=wrap;html=1;" vertex="1" parent="1">
          <mxGeometry x="130" y="120" width="100" height="60" as="geometry" />
        </mxCell>
        <mxCell id="qHXjgJ4QeEU7fklSRqXQ-6" value="服务器 IP：111.67.193.21，域名：xy1225.top" style="swimlane;startSize=23;" vertex="1" parent="1">
          <mxGeometry x="380" y="50" width="340" height="200" as="geometry" />
        </mxCell>
        <mxCell id="qHXjgJ4QeEU7fklSRqXQ-7" value="tomcat&lt;br&gt;默认8080端口" style="shape=hexagon;perimeter=hexagonPerimeter2;whiteSpace=wrap;html=1;fixedSize=1;" vertex="1" parent="qHXjgJ4QeEU7fklSRqXQ-6">
          <mxGeometry x="190" y="70" width="120" height="80" as="geometry" />
        </mxCell>
        <mxCell id="qHXjgJ4QeEU7fklSRqXQ-10" style="edgeStyle=entityRelationEdgeStyle;rounded=0;orthogonalLoop=1;jettySize=auto;html=1;exitX=1;exitY=0.5;exitDx=0;exitDy=0;fontSize=13;" edge="1" parent="qHXjgJ4QeEU7fklSRqXQ-6" source="qHXjgJ4QeEU7fklSRqXQ-8" target="qHXjgJ4QeEU7fklSRqXQ-7">
          <mxGeometry relative="1" as="geometry" />
        </mxCell>
        <mxCell id="qHXjgJ4QeEU7fklSRqXQ-8" value="nginx&lt;br&gt;默认80端口" style="shape=step;perimeter=stepPerimeter;whiteSpace=wrap;html=1;fixedSize=1;" vertex="1" parent="qHXjgJ4QeEU7fklSRqXQ-6">
          <mxGeometry x="20" y="70" width="120" height="80" as="geometry" />
        </mxCell>
      </root>
    </mxGraphModel>
  </diagram>
</mxfile>
